<svg viewBox="0 0 720 540" xmlns="http://www.w3.org/2000/svg" fill="none">
  <g stroke="#b8956a" stroke-width="1.3" opacity="0.5">
    <rect x="300" y="210" width="120" height="120"/>
    <rect x="180" y="210" width="120" height="120"/>
    <rect x="420" y="210" width="120" height="120"/>
    <rect x="300" y="90" width="120" height="120"/>
    <rect x="300" y="330" width="120" height="120"/>
  </g>
  <rect x="300" y="210" width="120" height="120" fill="#b8956a" opacity="0.12"/>
  <g stroke="#b8956a" stroke-width="1" stroke-dasharray="5 5" opacity="0.85">
    <line x1="300" y1="210" x2="300" y2="330"/>
    <line x1="420" y1="210" x2="420" y2="330"/>
    <line x1="300" y1="210" x2="420" y2="210"/>
    <line x1="300" y1="330" x2="420" y2="330"/>
  </g>
  <g stroke="#b8956a" stroke-width="1" opacity="0.6">
    <path d="M300 210 a18 18 0 0 1 18 -18"/>
    <path d="M420 330 a18 18 0 0 1 -18 18"/>
  </g>
  <g fill="#b8956a" opacity="0.5" font-family="monospace" font-size="13">
    <text x="446" y="205">k = 0.44</text>
  </g>
</svg>
